<svg width="32" height="32" viewBox="0 0 32 32" fill="none" xmlns="http://www.w3.org/2000/svg">
<path d="M23.9993 28.0007C23.9993 25.1717 22.8755 22.4586 20.8752 20.4582C18.8748 18.4578 16.1617 17.334 13.3327 17.334C10.5037 17.334 7.7906 18.4578 5.79021 20.4582C3.78982 22.4586 2.66602 25.1717 2.66602 28.0007" stroke="black" stroke-width="2.66667" stroke-linecap="round" stroke-linejoin="round"/>
<path d="M13.3327 17.3333C17.0146 17.3333 19.9993 14.3486 19.9993 10.6667C19.9993 6.98477 17.0146 4 13.3327 4C9.65078 4 6.66602 6.98477 6.66602 10.6667C6.66602 14.3486 9.65078 17.3333 13.3327 17.3333Z" stroke="black" stroke-width="2.66667" stroke-linecap="round" stroke-linejoin="round"/>
<path d="M29.3337 26.6669C29.3337 22.1736 26.6671 18.0003 24.0004 16.0003C24.8769 15.3426 25.5779 14.479 26.0411 13.486C26.5044 12.4929 26.7157 11.4009 26.6564 10.3067C26.5971 9.21244 26.2689 8.14971 25.701 7.21253C25.1331 6.27534 24.3429 5.49261 23.4004 4.93359" stroke="black" stroke-width="2.66667" stroke-linecap="round" stroke-linejoin="round"/>
</svg>
